<?xml version="1.0" encoding="UTF-8" standalone="no"?>
<!DOCTYPE svg PUBLIC "-//W3C//DTD SVG 1.1//EN"
 "http://www.w3.org/Graphics/SVG/1.1/DTD/svg11.dtd">
<!-- Generated by graphviz version 2.43.0 (0)
 -->
<!-- Title: api_method_map Pages: 1 -->
<svg width="1127pt" height="648pt"
 viewBox="0.00 0.00 1127.37 648.00" xmlns="http://www.w3.org/2000/svg" xmlns:xlink="http://www.w3.org/1999/xlink">
<g id="graph0" class="graph" transform="scale(0.55 0.55) rotate(0) translate(28.8 1149.8)">
<title>api_method_map</title>
<polygon fill="white" stroke="transparent" points="-28.8,28.8 -28.8,-1149.8 2021.69,-1149.8 2021.69,28.8 -28.8,28.8"/>
<g id="clust1" class="cluster">
<title>cluster_intents</title>
<polygon fill="none" stroke="steelblue" stroke-dasharray="5,2" points="1058.72,-660 1058.72,-1113 1965.21,-1113 1965.21,-660 1058.72,-660"/>
<text text-anchor="middle" x="1511.97" y="-1097.8" font-family="Times,serif" font-size="14.00">Intents Family</text>
</g>
<g id="clust2" class="cluster">
<title>cluster_inbox</title>
<polygon fill="none" stroke="gray" stroke-dasharray="5,2" points="1081.21,-253 1081.21,-652 1942.72,-652 1942.72,-253 1081.21,-253"/>
<text text-anchor="middle" x="1511.97" y="-636.8" font-family="Times,serif" font-size="14.00">Inbox + Approvals</text>
</g>
<g id="clust3" class="cluster">
<title>cluster_platform</title>
<polygon fill="none" stroke="gray" stroke-dasharray="5,2" points="1268.04,-8 1268.04,-245 1755.89,-245 1755.89,-8 1268.04,-8"/>
<text text-anchor="middle" x="1511.97" y="-229.8" font-family="Times,serif" font-size="14.00">Platform Helpers</text>
</g>
<!-- API -->
<g id="node1" class="node">
<title>API</title>
<polygon fill="none" stroke="black" points="792.21,-567 666.21,-567 666.21,-571 654.21,-571 654.21,-531 792.21,-531 792.21,-567"/>
<polyline fill="none" stroke="black" points="654.21,-567 666.21,-567 "/>
<text text-anchor="middle" x="723.21" y="-546.2" font-family="monospace" font-size="11.00">Public API Surface</text>
</g>
<!-- I1 -->
<g id="node3" class="node">
<title>I1</title>
<polygon fill="none" stroke="black" points="1574.71,-1082 1449.71,-1082 1449.71,-1046 1574.71,-1046 1574.71,-1082"/>
<text text-anchor="middle" x="1512.21" y="-1061.2" font-family="monospace" font-size="11.00">POST /v1/intents</text>
</g>
<!-- API&#45;&gt;I1 -->
<g id="edge2" class="edge">
<title>API&#45;&gt;I1</title>
<path fill="none" stroke="black" d="M742.12,-567.15C814.52,-639.38 1095.37,-908.73 1381.21,-1037 1399.39,-1045.16 1420.11,-1050.88 1439.59,-1054.89"/>
<polygon fill="black" stroke="black" points="1439.15,-1058.37 1449.64,-1056.83 1440.48,-1051.5 1439.15,-1058.37"/>
</g>
<!-- I2 -->
<g id="node4" class="node">
<title>I2</title>
<polygon fill="none" stroke="black" points="1588.21,-1028 1436.21,-1028 1436.21,-992 1588.21,-992 1588.21,-1028"/>
<text text-anchor="middle" x="1512.21" y="-1007.2" font-family="monospace" font-size="11.00">GET /v1/intents/{id}</text>
</g>
<!-- API&#45;&gt;I2 -->
<g id="edge3" class="edge">
<title>API&#45;&gt;I2</title>
<path fill="none" stroke="black" d="M744.89,-567.05C822.45,-633.76 1105.75,-868.39 1381.21,-983 1395.35,-988.88 1410.91,-993.53 1426.2,-997.19"/>
<polygon fill="black" stroke="black" points="1425.66,-1000.66 1436.19,-999.45 1427.21,-993.83 1425.66,-1000.66"/>
</g>
<!-- I3 -->
<g id="node5" class="node">
<title>I3</title>
<polygon fill="none" stroke="black" points="1611.71,-974 1412.71,-974 1412.71,-938 1611.71,-938 1611.71,-974"/>
<text text-anchor="middle" x="1512.21" y="-953.2" font-family="monospace" font-size="11.00">GET /v1/intents/{id}/events</text>
</g>
<!-- API&#45;&gt;I3 -->
<g id="edge4" class="edge">
<title>API&#45;&gt;I3</title>
<path fill="none" stroke="black" d="M748.71,-567.13C832.36,-628.15 1116.22,-827.87 1381.21,-929 1388.09,-931.63 1395.29,-934.02 1402.6,-936.19"/>
<polygon fill="black" stroke="black" points="1402.06,-939.68 1412.64,-939.03 1403.97,-932.94 1402.06,-939.68"/>
</g>
<!-- I4 -->
<g id="node6" class="node">
<title>I4</title>
<polygon fill="none" stroke="black" points="1635.21,-920 1389.21,-920 1389.21,-884 1635.21,-884 1635.21,-920"/>
<text text-anchor="middle" x="1512.21" y="-899.2" font-family="monospace" font-size="11.00">GET /v1/intents/{id}/events/stream</text>
</g>
<!-- API&#45;&gt;I4 -->
<g id="edge5" class="edge">
<title>API&#45;&gt;I4</title>
<path fill="none" stroke="black" d="M753.79,-567.15C844.28,-621.91 1126.67,-787.05 1381.21,-875 1387.65,-877.23 1394.34,-879.3 1401.13,-881.22"/>
<polygon fill="black" stroke="black" points="1400.57,-884.69 1411.13,-883.93 1402.4,-877.94 1400.57,-884.69"/>
</g>
<!-- I5 -->
<g id="node7" class="node">
<title>I5</title>
<polygon fill="none" stroke="black" points="1615.21,-866 1409.21,-866 1409.21,-830 1615.21,-830 1615.21,-866"/>
<text text-anchor="middle" x="1512.21" y="-845.2" font-family="monospace" font-size="11.00">POST /v1/intents/{id}/resume</text>
</g>
<!-- API&#45;&gt;I5 -->
<g id="edge6" class="edge">
<title>API&#45;&gt;I5</title>
<path fill="none" stroke="black" d="M761.07,-567.16C859.5,-615.01 1137.57,-745.99 1381.21,-821 1388.65,-823.29 1396.38,-825.44 1404.2,-827.46"/>
<polygon fill="black" stroke="black" points="1403.6,-830.92 1414.15,-829.94 1405.29,-824.12 1403.6,-830.92"/>
</g>
<!-- I6 -->
<g id="node8" class="node">
<title>I6</title>
<polygon fill="none" stroke="black" points="1621.71,-812 1402.71,-812 1402.71,-776 1621.71,-776 1621.71,-812"/>
<text text-anchor="middle" x="1512.21" y="-791.2" font-family="monospace" font-size="11.00">POST /v1/intents/{id}/controls</text>
</g>
<!-- API&#45;&gt;I6 -->
<g id="edge7" class="edge">
<title>API&#45;&gt;I6</title>
<path fill="none" stroke="black" d="M772.26,-567.07C880.01,-607.14 1149.67,-704.77 1381.21,-767 1389.87,-769.33 1398.91,-771.57 1408,-773.71"/>
<polygon fill="black" stroke="black" points="1407.35,-777.15 1417.88,-775.97 1408.91,-770.32 1407.35,-777.15"/>
</g>
<!-- I7 -->
<g id="node9" class="node">
<title>I7</title>
<polygon fill="none" stroke="black" points="1615.21,-758 1409.21,-758 1409.21,-722 1615.21,-722 1615.21,-758"/>
<text text-anchor="middle" x="1512.21" y="-737.2" font-family="monospace" font-size="11.00">POST /v1/intents/{id}/policy</text>
</g>
<!-- API&#45;&gt;I7 -->
<g id="edge8" class="edge">
<title>API&#45;&gt;I7</title>
<path fill="none" stroke="black" d="M792.57,-567.02C911.75,-598.22 1165.46,-663.69 1381.21,-713 1391.17,-715.28 1401.58,-717.57 1411.99,-719.82"/>
<polygon fill="black" stroke="black" points="1411.43,-723.28 1421.95,-721.95 1412.9,-716.43 1411.43,-723.28"/>
</g>
<!-- I8 -->
<g id="node10" class="node">
<title>I8</title>
<polygon fill="none" stroke="black" points="1618.21,-704 1406.21,-704 1406.21,-668 1618.21,-668 1618.21,-704"/>
<text text-anchor="middle" x="1512.21" y="-683.2" font-family="monospace" font-size="11.00">POST /v1/intents/{id}/resolve</text>
</g>
<!-- API&#45;&gt;I8 -->
<g id="edge9" class="edge">
<title>API&#45;&gt;I8</title>
<path fill="none" stroke="black" d="M792.33,-560.86C927.57,-584.4 1231.18,-637.25 1397.29,-666.17"/>
<polygon fill="black" stroke="black" points="1397.09,-669.69 1407.54,-667.95 1398.29,-662.79 1397.09,-669.69"/>
</g>
<!-- B1 -->
<g id="node11" class="node">
<title>B1</title>
<polygon fill="none" stroke="black" points="1564.21,-621 1460.21,-621 1460.21,-585 1564.21,-585 1564.21,-621"/>
<text text-anchor="middle" x="1512.21" y="-600.2" font-family="monospace" font-size="11.00">GET /v1/inbox</text>
</g>
<!-- API&#45;&gt;B1 -->
<g id="edge10" class="edge">
<title>API&#45;&gt;B1</title>
<path fill="none" stroke="black" d="M792.33,-553.67C943.48,-564.05 1304.96,-588.85 1449.73,-598.78"/>
<polygon fill="black" stroke="black" points="1449.55,-602.28 1459.77,-599.47 1450.03,-595.29 1449.55,-602.28"/>
</g>
<!-- B2 -->
<g id="node12" class="node">
<title>B2</title>
<polygon fill="none" stroke="black" points="1604.71,-567 1419.71,-567 1419.71,-531 1604.71,-531 1604.71,-567"/>
<text text-anchor="middle" x="1512.21" y="-546.2" font-family="monospace" font-size="11.00">GET /v1/inbox/{thread_id}</text>
</g>
<!-- API&#45;&gt;B2 -->
<g id="edge11" class="edge">
<title>API&#45;&gt;B2</title>
<path fill="none" stroke="black" d="M792.33,-549C930.95,-549 1246.47,-549 1409.5,-549"/>
<polygon fill="black" stroke="black" points="1409.53,-552.5 1419.53,-549 1409.53,-545.5 1409.53,-552.5"/>
</g>
<!-- B3 -->
<g id="node13" class="node">
<title>B3</title>
<polygon fill="none" stroke="black" points="1604.71,-513 1419.71,-513 1419.71,-477 1604.71,-477 1604.71,-513"/>
<text text-anchor="middle" x="1512.21" y="-492.2" font-family="monospace" font-size="11.00">POST /v1/inbox/{id}/reply</text>
</g>
<!-- API&#45;&gt;B3 -->
<g id="edge12" class="edge">
<title>API&#45;&gt;B3</title>
<path fill="none" stroke="black" d="M792.33,-544.33C930.95,-534.81 1246.47,-513.16 1409.5,-501.98"/>
<polygon fill="black" stroke="black" points="1409.8,-505.47 1419.53,-501.29 1409.32,-498.48 1409.8,-505.47"/>
</g>
<!-- B4 -->
<g id="node14" class="node">
<title>B4</title>
<polygon fill="none" stroke="black" points="1615.21,-459 1409.21,-459 1409.21,-423 1615.21,-423 1615.21,-459"/>
<text text-anchor="middle" x="1512.21" y="-438.2" font-family="monospace" font-size="11.00">POST /v1/inbox/{id}/delegate</text>
</g>
<!-- API&#45;&gt;B4 -->
<g id="edge13" class="edge">
<title>API&#45;&gt;B4</title>
<path fill="none" stroke="black" d="M792.33,-539.65C928.03,-521.03 1233.23,-479.15 1398.97,-456.4"/>
<polygon fill="black" stroke="black" points="1399.77,-459.83 1409.2,-455 1398.82,-452.89 1399.77,-459.83"/>
</g>
<!-- B5 -->
<g id="node15" class="node">
<title>B5</title>
<polygon fill="none" stroke="black" points="1611.71,-405 1412.71,-405 1412.71,-369 1611.71,-369 1611.71,-405"/>
<text text-anchor="middle" x="1512.21" y="-384.2" font-family="monospace" font-size="11.00">POST /v1/inbox/{id}/approve</text>
</g>
<!-- API&#45;&gt;B5 -->
<g id="edge14" class="edge">
<title>API&#45;&gt;B5</title>
<path fill="none" stroke="black" d="M792.33,-534.98C932.14,-506.2 1251.9,-440.38 1413.66,-407.08"/>
<polygon fill="black" stroke="black" points="1414.52,-410.48 1423.61,-405.03 1413.11,-403.62 1414.52,-410.48"/>
</g>
<!-- B6 -->
<g id="node16" class="node">
<title>B6</title>
<polygon fill="none" stroke="black" points="1608.21,-351 1416.21,-351 1416.21,-315 1608.21,-315 1608.21,-351"/>
<text text-anchor="middle" x="1512.21" y="-330.2" font-family="monospace" font-size="11.00">POST /v1/inbox/{id}/reject</text>
</g>
<!-- API&#45;&gt;B6 -->
<g id="edge15" class="edge">
<title>API&#45;&gt;B6</title>
<path fill="none" stroke="black" d="M781.38,-530.98C894.96,-495.52 1157.4,-415.35 1381.21,-360 1390.61,-357.68 1400.42,-355.39 1410.26,-353.19"/>
<polygon fill="black" stroke="black" points="1411.09,-356.59 1420.1,-351.01 1409.58,-349.75 1411.09,-356.59"/>
</g>
<!-- B7 -->
<g id="node17" class="node">
<title>B7</title>
<polygon fill="none" stroke="black" points="1628.71,-297 1395.71,-297 1395.71,-261 1628.71,-261 1628.71,-297"/>
<text text-anchor="middle" x="1512.21" y="-276.2" font-family="monospace" font-size="11.00">POST /v1/approvals/{id}/decision</text>
</g>
<!-- API&#45;&gt;B7 -->
<g id="edge16" class="edge">
<title>API&#45;&gt;B7</title>
<path fill="none" stroke="black" d="M766.14,-530.99C869.16,-487.28 1143.62,-374.2 1381.21,-306 1389.25,-303.69 1397.63,-301.5 1406.08,-299.43"/>
<polygon fill="black" stroke="black" points="1407.11,-302.78 1416.02,-297.05 1405.48,-295.97 1407.11,-302.78"/>
</g>
<!-- P1 -->
<g id="node18" class="node">
<title>P1</title>
<polygon fill="none" stroke="black" points="1557.71,-214 1466.71,-214 1466.71,-178 1557.71,-178 1557.71,-214"/>
<text text-anchor="middle" x="1512.21" y="-193.2" font-family="monospace" font-size="11.00">Schemas API</text>
</g>
<!-- API&#45;&gt;P1 -->
<g id="edge17" class="edge">
<title>API&#45;&gt;P1</title>
<path fill="none" stroke="black" d="M762.47,-530.86C863.16,-483.27 1144.08,-351.43 1381.21,-249 1405.99,-238.3 1433.66,-226.94 1457.08,-217.49"/>
<polygon fill="black" stroke="black" points="1458.53,-220.68 1466.5,-213.7 1455.91,-214.18 1458.53,-220.68"/>
</g>
<!-- P2 -->
<g id="node19" class="node">
<title>P2</title>
<polygon fill="none" stroke="black" points="1561.21,-160 1463.21,-160 1463.21,-124 1561.21,-124 1561.21,-160"/>
<text text-anchor="middle" x="1512.21" y="-139.2" font-family="monospace" font-size="11.00">Webhooks API</text>
</g>
<!-- API&#45;&gt;P2 -->
<g id="edge18" class="edge">
<title>API&#45;&gt;P2</title>
<path fill="none" stroke="black" d="M748.71,-530.87C832.36,-469.85 1116.22,-270.13 1381.21,-169 1404,-160.3 1430.17,-154.18 1453.02,-149.99"/>
<polygon fill="black" stroke="black" points="1453.68,-153.43 1462.93,-148.26 1452.48,-146.53 1453.68,-153.43"/>
</g>
<!-- P3 -->
<g id="node20" class="node">
<title>P3</title>
<polygon fill="none" stroke="black" points="1574.71,-106 1449.71,-106 1449.71,-70 1574.71,-70 1574.71,-106"/>
<text text-anchor="middle" x="1512.21" y="-85.2" font-family="monospace" font-size="11.00">Users + Auth API</text>
</g>
<!-- API&#45;&gt;P3 -->
<g id="edge19" class="edge">
<title>API&#45;&gt;P3</title>
<path fill="none" stroke="black" d="M744.89,-530.95C822.45,-464.24 1105.75,-229.61 1381.21,-115 1399.51,-107.38 1420.19,-101.84 1439.58,-97.83"/>
<polygon fill="black" stroke="black" points="1440.45,-101.23 1449.59,-95.87 1439.1,-94.36 1440.45,-101.23"/>
</g>
<!-- P4 -->
<g id="node21" class="node">
<title>P4</title>
<polygon fill="none" stroke="black" points="1550.71,-52 1473.71,-52 1473.71,-16 1550.71,-16 1550.71,-52"/>
<text text-anchor="middle" x="1512.21" y="-31.2" font-family="monospace" font-size="11.00">Media API</text>
</g>
<!-- API&#45;&gt;P4 -->
<g id="edge20" class="edge">
<title>API&#45;&gt;P4</title>
<path fill="none" stroke="black" d="M742.12,-530.85C814.52,-458.62 1095.37,-189.27 1381.21,-61 1407.09,-49.39 1438.12,-42.7 1463.38,-38.89"/>
<polygon fill="black" stroke="black" points="1464.04,-42.33 1473.46,-37.47 1463.07,-35.4 1464.04,-42.33"/>
</g>
<!-- CLI -->
<g id="node2" class="node">
<title>CLI</title>
<polygon fill="none" stroke="black" points="232.21,-567 128.21,-567 128.21,-531 232.21,-531 232.21,-567"/>
<text text-anchor="middle" x="180.21" y="-552.2" font-family="monospace" font-size="11.00">Client / SDK</text>
<text text-anchor="middle" x="180.21" y="-540.2" font-family="monospace" font-size="11.00">HTTPS methods</text>
</g>
<!-- CLI&#45;&gt;API -->
<g id="edge1" class="edge">
<title>CLI&#45;&gt;API</title>
<path fill="none" stroke="black" d="M232.59,-549C327.61,-549 531.32,-549 643.72,-549"/>
<polygon fill="black" stroke="black" points="643.97,-552.5 653.97,-549 643.97,-545.5 643.97,-552.5"/>
</g>
</g>
</svg>
