<?xml version="1.0" encoding="UTF-8" standalone="no"?>
<!DOCTYPE svg PUBLIC "-//W3C//DTD SVG 1.1//EN"
 "http://www.w3.org/Graphics/SVG/1.1/DTD/svg11.dtd">
<!-- Generated by graphviz version 2.43.0 (0)
 -->
<!-- Title: idempotency Pages: 1 -->
<svg width="1112pt" height="648pt"
 viewBox="0.00 0.00 1111.61 648.00" xmlns="http://www.w3.org/2000/svg" xmlns:xlink="http://www.w3.org/1999/xlink">
<g id="graph0" class="graph" transform="scale(0.92 0.92) rotate(0) translate(28.8 676.8)">
<title>idempotency</title>
<polygon fill="white" stroke="transparent" points="-28.8,28.8 -28.8,-676.8 1181.62,-676.8 1181.62,28.8 -28.8,28.8"/>
<!-- REQ -->
<g id="node1" class="node">
<title>REQ</title>
<polygon fill="#1e40af" stroke="black" points="120.32,-291.21 5.32,-291.21 5.32,-255.21 120.32,-255.21 120.32,-291.21"/>
<text text-anchor="middle" x="62.82" y="-270.41" font-family="Helvetica,sans-Serif" font-size="11.00" fill="white">Incoming Request</text>
</g>
<!-- IDK -->
<g id="node2" class="node">
<title>IDK</title>
<polygon fill="#dbeafe" stroke="black" points="327.82,-291.21 171.82,-291.21 171.82,-255.21 327.82,-255.21 327.82,-291.21"/>
<text text-anchor="middle" x="249.82" y="-270.41" font-family="Helvetica,sans-Serif" font-size="11.00">extract idempotency_key</text>
</g>
<!-- REQ&#45;&gt;IDK -->
<g id="edge1" class="edge">
<title>REQ&#45;&gt;IDK</title>
<path fill="none" stroke="black" d="M120.33,-273.21C133.33,-273.21 147.45,-273.21 161.42,-273.21"/>
<polygon fill="black" stroke="black" points="161.54,-276.71 171.54,-273.21 161.54,-269.71 161.54,-276.71"/>
</g>
<!-- LOOK -->
<g id="node3" class="node">
<title>LOOK</title>
<polygon fill="#fef3c7" stroke="black" points="455.82,-291.21 381.15,-273.21 455.82,-255.21 530.5,-273.21 455.82,-291.21"/>
<text text-anchor="middle" x="455.82" y="-270.41" font-family="Helvetica,sans-Serif" font-size="11.00">key in store?</text>
</g>
<!-- IDK&#45;&gt;LOOK -->
<g id="edge2" class="edge">
<title>IDK&#45;&gt;LOOK</title>
<path fill="none" stroke="black" d="M327.95,-273.21C341.93,-273.21 356.57,-273.21 370.74,-273.21"/>
<polygon fill="black" stroke="black" points="370.96,-276.71 380.96,-273.21 370.96,-269.71 370.96,-276.71"/>
</g>
<!-- DUP -->
<g id="node4" class="node">
<title>DUP</title>
<polygon fill="#fef3c7" stroke="black" points="687.82,-393.21 602.74,-375.21 687.82,-357.21 772.91,-375.21 687.82,-393.21"/>
<text text-anchor="middle" x="687.82" y="-372.41" font-family="Helvetica,sans-Serif" font-size="11.00">same payload?</text>
</g>
<!-- LOOK&#45;&gt;DUP -->
<g id="edge3" class="edge">
<title>LOOK&#45;&gt;DUP</title>
<path fill="none" stroke="black" d="M483.21,-284.91C524.19,-303.08 603.26,-338.15 649.89,-358.83"/>
<polygon fill="black" stroke="black" points="648.76,-362.16 659.32,-363.01 651.6,-355.76 648.76,-362.16"/>
<text text-anchor="middle" x="565.82" y="-327.21" font-family="Helvetica,sans-Serif" font-size="10.00">yes</text>
</g>
<!-- EXEC -->
<g id="node7" class="node">
<title>EXEC</title>
<polygon fill="#dbeafe" stroke="black" points="745.82,-188.21 629.82,-188.21 629.82,-152.21 745.82,-152.21 745.82,-188.21"/>
<text text-anchor="middle" x="687.82" y="-167.41" font-family="Helvetica,sans-Serif" font-size="11.00">execute operation</text>
</g>
<!-- LOOK&#45;&gt;EXEC -->
<g id="edge4" class="edge">
<title>LOOK&#45;&gt;EXEC</title>
<path fill="none" stroke="black" d="M482.76,-261.6C520.1,-244.87 589.71,-213.7 637.14,-192.46"/>
<polygon fill="black" stroke="black" points="638.62,-195.63 646.31,-188.35 635.76,-189.24 638.62,-195.63"/>
<text text-anchor="middle" x="565.82" y="-230.21" font-family="Helvetica,sans-Serif" font-size="10.00">no</text>
</g>
<!-- CACHE -->
<g id="node5" class="node">
<title>CACHE</title>
<polygon fill="#dcfce7" stroke="black" points="964.32,-598.21 847.32,-598.21 847.32,-562.21 964.32,-562.21 964.32,-598.21"/>
<text text-anchor="middle" x="905.82" y="-577.41" font-family="Helvetica,sans-Serif" font-size="11.00">return cached 200</text>
</g>
<!-- DUP&#45;&gt;CACHE -->
<g id="edge5" class="edge">
<title>DUP&#45;&gt;CACHE</title>
<path fill="none" stroke="black" d="M704.36,-389.95C740.93,-424.67 832.82,-511.88 878.37,-555.11"/>
<polygon fill="black" stroke="black" points="876.13,-557.81 885.8,-562.15 880.95,-552.73 876.13,-557.81"/>
<text text-anchor="middle" x="808.82" y="-498.21" font-family="Helvetica,sans-Serif" font-size="10.00">yes</text>
</g>
<!-- CONF -->
<g id="node6" class="node">
<title>CONF</title>
<polygon fill="#fee2e2" stroke="black" points="946.82,-393.21 864.82,-393.21 864.82,-357.21 946.82,-357.21 946.82,-393.21"/>
<text text-anchor="middle" x="905.82" y="-372.41" font-family="Helvetica,sans-Serif" font-size="11.00">409 Conflict</text>
</g>
<!-- DUP&#45;&gt;CONF -->
<g id="edge6" class="edge">
<title>DUP&#45;&gt;CONF</title>
<path fill="none" stroke="black" d="M772.95,-375.21C800.52,-375.21 830.28,-375.21 854.53,-375.21"/>
<polygon fill="black" stroke="black" points="854.57,-378.71 864.57,-375.21 854.57,-371.71 854.57,-378.71"/>
<text text-anchor="middle" x="808.82" y="-378.21" font-family="Helvetica,sans-Serif" font-size="10.00">no</text>
</g>
<!-- STORE -->
<g id="node8" class="node">
<title>STORE</title>
<polygon fill="#dbeafe" stroke="black" points="968.32,-188.21 843.32,-188.21 843.32,-152.21 968.32,-152.21 968.32,-188.21"/>
<text text-anchor="middle" x="905.82" y="-167.41" font-family="Helvetica,sans-Serif" font-size="11.00">persist result + key</text>
</g>
<!-- EXEC&#45;&gt;STORE -->
<g id="edge7" class="edge">
<title>EXEC&#45;&gt;STORE</title>
<path fill="none" stroke="black" d="M745.86,-170.21C772.57,-170.21 804.69,-170.21 833.04,-170.21"/>
<polygon fill="black" stroke="black" points="833.3,-173.71 843.3,-170.21 833.3,-166.71 833.3,-173.71"/>
</g>
<!-- RESP -->
<g id="node9" class="node">
<title>RESP</title>
<polygon fill="#dcfce7" stroke="black" points="1135.82,-291.21 1031.82,-291.21 1031.82,-255.21 1135.82,-255.21 1135.82,-291.21"/>
<text text-anchor="middle" x="1083.82" y="-270.41" font-family="Helvetica,sans-Serif" font-size="11.00">return response</text>
</g>
<!-- STORE&#45;&gt;RESP -->
<g id="edge8" class="edge">
<title>STORE&#45;&gt;RESP</title>
<path fill="none" stroke="black" d="M937.88,-188.39C967.2,-205.54 1011.29,-231.35 1043.14,-249.99"/>
<polygon fill="black" stroke="black" points="1041.38,-253.01 1051.78,-255.04 1044.91,-246.97 1041.38,-253.01"/>
</g>
<!-- TTL -->
<g id="node10" class="node">
<title>TTL</title>
<polygon fill="#dbeafe" stroke="black" points="1147.82,-86.21 1019.82,-86.21 1019.82,-50.21 1147.82,-50.21 1147.82,-86.21"/>
<text text-anchor="middle" x="1083.82" y="-65.41" font-family="Helvetica,sans-Serif" font-size="11.00">expire key after TTL</text>
</g>
<!-- STORE&#45;&gt;TTL -->
<g id="edge9" class="edge">
<title>STORE&#45;&gt;TTL</title>
<path fill="none" stroke="black" d="M937.88,-152.21C966.98,-135.34 1010.64,-110.04 1042.44,-91.62"/>
<polygon fill="black" stroke="black" points="1044.58,-94.42 1051.48,-86.37 1041.07,-88.36 1044.58,-94.42"/>
</g>
</g>
</svg>
